HIERARCHY
ROOT Hips
{
	OFFSET 0.000000 100.481300 0.000000
	CHANNELS 6 Xposition Yposition Zposition Xrotation Yrotation Zrotation
	JOINT Spine
	{
		OFFSET -0.279200 12.230698 -2.892100
		CHANNELS 3 Xrotation Yrotation Zrotation
		JOINT Spine1
		{
			OFFSET -0.325700 14.269203 -3.374200
			CHANNELS 3 Xrotation Yrotation Zrotation
			JOINT Spine2
			{
				OFFSET -0.372300 16.307602 -0.352600
				CHANNELS 3 Xrotation Yrotation Zrotation
				JOINT Neck
				{
					OFFSET -0.418800 17.814194 8.416900
					CHANNELS 3 Xrotation Yrotation Zrotation
					JOINT Head
					{
						OFFSET 0.000000 7.031097 3.806800
						CHANNELS 3 Xrotation Yrotation Zrotation
						JOINT HeadTop_End
						{
							OFFSET 0.000000 24.646606 12.978600
							CHANNELS 3 Xrotation Yrotation Zrotation
							End Site
							{
								OFFSET 0.000000 27.854965 0.000000
							}
						}
					}
				}
				JOINT LeftShoulder
				{
					OFFSET 16.952999 14.495407 -7.737500
					CHANNELS 3 Xrotation Yrotation Zrotation
					JOINT LeftArm
					{
						OFFSET 9.308998 -2.777710 0.208600
						CHANNELS 3 Xrotation Yrotation Zrotation
						JOINT LeftForeArm
						{
							OFFSET 29.972298 0.000000 0.000000
							CHANNELS 3 Xrotation Yrotation Zrotation
							JOINT LeftHand
							{
								OFFSET 26.026505 0.000000 0.000000
								CHANNELS 3 Xrotation Yrotation Zrotation
								JOINT LeftHandThumb1
								{
									OFFSET 12.240501 -7.147949 9.207150
									CHANNELS 3 Xrotation Yrotation Zrotation
									JOINT LeftHandThumb2
									{
										OFFSET 4.138618 -2.389435 2.389433
										CHANNELS 3 Xrotation Yrotation Zrotation
										JOINT LeftHandThumb3
										{
											OFFSET 2.726913 -1.574387 1.574386
											CHANNELS 3 Xrotation Yrotation Zrotation
											JOINT LeftHandThumb4
											{
												OFFSET 3.941010 -2.275345 2.275342
												CHANNELS 3 Xrotation Yrotation Zrotation
												End Site
												{
													OFFSET -0.005798 5.087799 0.009903
												}
											}
										}
									}
								}
								JOINT LeftHandIndex1
								{
									OFFSET 24.424698 -1.985611 5.953459
									CHANNELS 3 Xrotation Yrotation Zrotation
									JOINT LeftHandIndex2
									{
										OFFSET 6.426697 0.000000 0.000000
										CHANNELS 3 Xrotation Yrotation Zrotation
										JOINT LeftHandIndex3
										{
											OFFSET 5.337898 0.000000 0.000000
											CHANNELS 3 Xrotation Yrotation Zrotation
											JOINT LeftHandIndex4
											{
												OFFSET 4.409401 0.000000 0.000000
												CHANNELS 3 Xrotation Yrotation Zrotation
												End Site
												{
													OFFSET 0.000000 4.409363 0.014373
												}
											}
										}
									}
								}
								JOINT LeftHandMiddle1
								{
									OFFSET 23.810104 0.000000 0.000000
									CHANNELS 3 Xrotation Yrotation Zrotation
									JOINT LeftHandMiddle2
									{
										OFFSET 7.176498 0.000000 0.000000
										CHANNELS 3 Xrotation Yrotation Zrotation
										JOINT LeftHandMiddle3
										{
											OFFSET 6.774902 0.000000 0.000000
											CHANNELS 3 Xrotation Yrotation Zrotation
											JOINT LeftHandMiddle4
											{
												OFFSET 5.403328 0.000000 0.000000
												CHANNELS 3 Xrotation Yrotation Zrotation
												End Site
												{
													OFFSET -0.027702 5.403244 0.017414
												}
											}
										}
									}
								}
								JOINT LeftHandRing1
								{
									OFFSET 22.908401 -0.839279 -6.020567
									CHANNELS 3 Xrotation Yrotation Zrotation
									JOINT LeftHandRing2
									{
										OFFSET 6.337502 0.000000 0.000000
										CHANNELS 3 Xrotation Yrotation Zrotation
										JOINT LeftHandRing3
										{
											OFFSET 5.779297 0.000000 0.000000
											CHANNELS 3 Xrotation Yrotation Zrotation
											JOINT LeftHandRing4
											{
												OFFSET 4.965698 0.000000 0.000000
												CHANNELS 3 Xrotation Yrotation Zrotation
												End Site
												{
													OFFSET 0.000000 4.965668 0.016186
												}
											}
										}
									}
								}
								JOINT LeftHandPinky1
								{
									OFFSET 20.037003 -1.530319 -10.950146
									CHANNELS 3 Xrotation Yrotation Zrotation
									JOINT LeftHandPinky2
									{
										OFFSET 5.254700 0.000000 0.000000
										CHANNELS 3 Xrotation Yrotation Zrotation
										JOINT LeftHandPinky3
										{
											OFFSET 4.810204 0.000000 0.000000
											CHANNELS 3 Xrotation Yrotation Zrotation
											JOINT LeftHandPinky4
											{
												OFFSET 3.647202 0.000000 0.000000
												CHANNELS 3 Xrotation Yrotation Zrotation
												End Site
												{
													OFFSET 0.000000 3.647186 0.011889
												}
											}
										}
									}
								}
							}
						}
					}
				}
				JOINT RightShoulder
				{
					OFFSET -15.141001 14.495407 -7.737500
					CHANNELS 3 Xrotation Yrotation Zrotation
					JOINT RightArm
					{
						OFFSET -9.308998 -2.777710 0.208500
						CHANNELS 3 Xrotation Yrotation Zrotation
						JOINT RightForeArm
						{
							OFFSET -29.972300 0.000000 0.000000
							CHANNELS 3 Xrotation Yrotation Zrotation
							JOINT RightHand
							{
								OFFSET -26.026505 0.000000 0.000000
								CHANNELS 3 Xrotation Yrotation Zrotation
								JOINT RightHandThumb1
								{
									OFFSET -12.240601 -7.148026 9.207092
									CHANNELS 3 Xrotation Yrotation Zrotation
									JOINT RightHandThumb2
									{
										OFFSET -4.138618 -2.389435 2.389433
										CHANNELS 3 Xrotation Yrotation Zrotation
										JOINT RightHandThumb3
										{
											OFFSET -2.726974 -1.574417 1.574421
											CHANNELS 3 Xrotation Yrotation Zrotation
											JOINT RightHandThumb4
											{
												OFFSET -3.941010 -2.275345 2.275343
												CHANNELS 3 Xrotation Yrotation Zrotation
												End Site
												{
													OFFSET 0.005814 5.087799 0.009927
												}
											}
										}
									}
								}
								JOINT RightHandIndex1
								{
									OFFSET -24.424698 -1.985657 5.953444
									CHANNELS 3 Xrotation Yrotation Zrotation
									JOINT RightHandIndex2
									{
										OFFSET -6.426697 0.000000 0.000000
										CHANNELS 3 Xrotation Yrotation Zrotation
										JOINT RightHandIndex3
										{
											OFFSET -5.337898 0.000000 0.000000
											CHANNELS 3 Xrotation Yrotation Zrotation
											JOINT RightHandIndex4
											{
												OFFSET -4.409401 0.000000 0.000000
												CHANNELS 3 Xrotation Yrotation Zrotation
												End Site
												{
													OFFSET 0.000000 4.409363 0.014408
												}
											}
										}
									}
								}
								JOINT RightHandMiddle1
								{
									OFFSET -23.810097 0.000000 0.000000
									CHANNELS 3 Xrotation Yrotation Zrotation
									JOINT RightHandMiddle2
									{
										OFFSET -7.176498 0.000000 0.000000
										CHANNELS 3 Xrotation Yrotation Zrotation
										JOINT RightHandMiddle3
										{
											OFFSET -6.774902 0.000000 0.000000
											CHANNELS 3 Xrotation Yrotation Zrotation
											JOINT RightHandMiddle4
											{
												OFFSET -5.403328 0.000000 0.000000
												CHANNELS 3 Xrotation Yrotation Zrotation
												End Site
												{
													OFFSET 0.027702 5.403244 0.017457
												}
											}
										}
									}
								}
								JOINT RightHandRing1
								{
									OFFSET -22.908302 -0.839325 -6.020576
									CHANNELS 3 Xrotation Yrotation Zrotation
									JOINT RightHandRing2
									{
										OFFSET -6.337502 0.000000 0.000000
										CHANNELS 3 Xrotation Yrotation Zrotation
										JOINT RightHandRing3
										{
											OFFSET -5.779297 0.000000 0.000000
											CHANNELS 3 Xrotation Yrotation Zrotation
											JOINT RightHandRing4
											{
												OFFSET -4.965698 0.000000 0.000000
												CHANNELS 3 Xrotation Yrotation Zrotation
												End Site
												{
													OFFSET 0.000000 4.965668 0.016226
												}
											}
										}
									}
								}
								JOINT RightHandPinky1
								{
									OFFSET -20.037003 -1.530334 -10.950259
									CHANNELS 3 Xrotation Yrotation Zrotation
									JOINT RightHandPinky2
									{
										OFFSET -5.254700 0.000000 0.000000
										CHANNELS 3 Xrotation Yrotation Zrotation
										JOINT RightHandPinky3
										{
											OFFSET -4.810204 0.000000 0.000000
											CHANNELS 3 Xrotation Yrotation Zrotation
											JOINT RightHandPinky4
											{
												OFFSET -3.647202 0.000000 0.000000
												CHANNELS 3 Xrotation Yrotation Zrotation
												End Site
												{
													OFFSET 0.000000 3.647186 0.011917
												}
											}
										}
									}
								}
							}
						}
					}
				}
			}
		}
	}
	JOINT LeftUpLeg
	{
		OFFSET 15.427100 -6.655098 0.678600
		CHANNELS 3 Xrotation Yrotation Zrotation
		JOINT LeftLeg
		{
			OFFSET 4.081073 -39.591068 13.024000
			CHANNELS 3 Xrotation Yrotation Zrotation
			JOINT LeftFoot
			{
				OFFSET -4.081074 -37.707932 -15.979700
				CHANNELS 3 Xrotation Yrotation Zrotation
				JOINT LeftToeBase
				{
					OFFSET 5.346399 -15.068900 20.645000
					CHANNELS 3 Xrotation Yrotation Zrotation
					JOINT LeftToe_End
					{
						OFFSET 2.754700 0.931300 11.300900
						CHANNELS 3 Xrotation Yrotation Zrotation
						End Site
						{
							OFFSET 0.000000 11.669021 0.000000
						}
					}
				}
			}
		}
	}
	JOINT RightUpLeg
	{
		OFFSET -15.569500 -6.655098 0.678600
		CHANNELS 3 Xrotation Yrotation Zrotation
		JOINT RightLeg
		{
			OFFSET -4.081825 -39.591045 13.023800
			CHANNELS 3 Xrotation Yrotation Zrotation
			JOINT RightFoot
			{
				OFFSET 4.081824 -37.707954 -15.979600
				CHANNELS 3 Xrotation Yrotation Zrotation
				JOINT RightToeBase
				{
					OFFSET -5.346400 -15.068900 20.645000
					CHANNELS 3 Xrotation Yrotation Zrotation
					JOINT RightToe_End
					{
						OFFSET -2.754700 0.931300 11.300900
						CHANNELS 3 Xrotation Yrotation Zrotation
						End Site
						{
							OFFSET 0.000000 11.669021 0.000000
						}
					}
				}
			}
		}
	}
}
MOTION
Frames: 6
Frame Time: 0.033333
6.360305 217.286453 1.619093 4.916328 -2.617606 7.099089 4.512371 -4.138515 11.403132 0.749054 -0.719532 1.645694 0.743672 -0.734945 1.641373 2.005480 -10.819540 14.430895 32.960714 -3.602801 -15.290932 -0.000001 -0.000000 0.000002 -0.097539 3.204892 2.095549 -13.184194 -23.047848 26.904836 0.000000 -5.034332 0.000001 -34.669016 -11.639002 33.383116 -25.025547 15.889443 -8.064044 10.130971 3.659405 1.893129 -2.752817 -17.100092 0.268792 0.000000 0.000000 -0.000002 3.523920 -20.546718 9.027012 0.055156 0.871550 -7.241842 0.000037 -0.022994 0.190522 0.000001 0.000000 -0.000000 -0.401901 -5.239473 -4.522433 0.156789 1.463862 -12.225360 0.000303 -0.065002 0.538604 -0.000002 -0.000000 0.000000 0.250922 1.849632 -16.563883 0.371868 2.236301 -18.879990 0.000872 -0.109758 0.909547 -0.000000 0.000002 0.000000 10.533186 25.257724 -23.141748 1.287575 -0.070691 -35.769612 0.067794 -0.965816 8.030151 0.000001 -0.000001 0.000001 3.695085 -11.201537 33.628184 -28.910736 -19.271160 17.262120 0.000008 29.841438 0.000006 -26.217445 -9.275003 -14.392891 -16.093432 -9.607647 -6.511318 18.438852 -3.034188 -1.755838 -2.265431 2.736726 -1.353455 0.000000 0.000000 -0.000002 2.044747 16.484836 -6.393813 0.357019 -2.203423 18.404419 0.000032 0.023216 -0.190498 -0.000001 0.000003 -0.000000 0.373150 -6.891912 2.799643 0.263834 -1.900810 15.802724 18.479908 -0.068632 -0.336342 -0.000001 -0.000001 -0.000001 1.536953 -9.530235 9.279717 0.590351 -2.808468 23.736973 22.328382 -0.117493 -0.427093 0.000000 0.000000 -0.000000 7.429835 -22.299024 18.551673 0.203881 -1.674728 13.881475 0.003981 0.235747 -1.934909 -0.000001 -0.000000 -0.000000 -12.432649 2.888795 -12.608083 6.589336 -3.670669 -0.136133 10.483412 -0.478241 -2.022899 -0.124679 -0.000001 -0.000005 0.000002 -0.000001 0.000000 -20.471006 -11.895091 -16.486811 12.520293 9.117420 0.531442 5.424544 8.380209 11.874724 -0.374821 -0.000003 0.000005 -0.000000 -0.000000 0.000000 
6.041655 217.497681 1.114439 6.121040 -5.002410 6.443443 6.349263 -5.102830 9.476255 1.035966 -0.880515 1.293451 1.027323 -0.899052 1.287645 0.837151 -9.615167 13.824801 33.404300 -0.767292 -16.190275 0.000002 -0.000001 -0.000000 -0.125017 2.785999 3.377202 -16.847051 -26.426939 25.445767 -0.000000 -3.075664 0.000001 -30.858194 -10.252070 30.096870 -25.025552 15.889457 -8.064056 10.130969 3.659404 1.893144 -2.752807 -17.100123 0.268799 0.000000 0.000001 0.000000 3.523920 -20.546736 9.027013 0.055178 0.871549 -7.241832 0.000036 -0.022996 0.190522 0.000001 0.000000 -0.000001 -0.401908 -5.239477 -4.522434 0.156788 1.463861 -12.225379 0.000306 -0.065003 0.538604 -0.000001 -0.000001 0.000001 0.250912 1.849647 -16.563888 0.371877 2.236288 -18.879994 0.000874 -0.109759 0.909545 0.000001 0.000001 -0.000001 10.533192 25.257730 -23.141762 1.287564 -0.070687 -35.769632 0.067783 -0.965830 8.030156 0.000002 0.000002 0.000001 3.920465 -12.585267 33.155866 -29.619071 -20.325581 17.117035 -0.000005 32.075436 0.000004 -26.709663 -10.002962 -15.044178 -16.093439 -9.607643 -6.511293 18.438866 -3.034172 -1.755839 -2.265422 2.736722 -1.353447 -0.000000 0.000001 0.000003 2.044728 16.484841 -6.393781 0.357012 -2.203453 18.404430 0.000031 0.023219 -0.190499 -0.000000 0.000002 -0.000001 0.373145 -6.891914 2.799662 0.263829 -1.900820 15.802712 18.479915 -0.068632 -0.336353 -0.000004 0.000001 -0.000001 1.536949 -9.530241 9.279740 0.590339 -2.808467 23.736960 22.328380 -0.117475 -0.427117 0.000001 -0.000000 0.000000 7.429837 -22.298995 18.551677 0.203890 -1.674736 13.881489 0.003996 0.235745 -1.934914 0.000001 -0.000000 -0.000001 -13.658303 3.549749 -11.172007 6.107611 -2.842907 -0.173769 11.771052 -0.454606 -1.186676 0.043159 0.000004 0.000002 -0.000001 0.000001 0.000000 -21.803374 -11.230400 -14.805070 11.073302 9.057954 0.562497 7.994040 9.851616 12.553641 -0.378859 -0.000003 0.000002 -0.000000 -0.000000 -0.000001 
5.693532 217.623749 0.521047 6.949924 -7.056007 5.962835 8.327013 -6.248988 7.315186 1.339752 -1.061060 0.898131 1.326718 -1.083332 0.890897 -0.586610 -8.355745 13.238482 33.781672 2.355251 -17.026273 -0.000000 -0.000001 -0.000000 -0.098801 2.131950 4.358284 -20.685786 -28.945157 22.878156 0.000000 -4.818084 0.000003 -31.016108 -4.508405 25.711728 -25.025555 15.889455 -8.064041 10.130971 3.659390 1.893135 -2.752830 -17.100125 0.268795 0.000001 0.000002 -0.000001 3.523922 -20.546715 9.027006 0.055149 0.871541 -7.241840 0.000034 -0.022995 0.190522 0.000001 0.000000 0.000001 -0.401892 -5.239484 -4.522436 0.156763 1.463850 -12.225348 0.000306 -0.065004 0.538604 -0.000001 0.000001 0.000002 0.250934 1.849651 -16.563880 0.371862 2.236283 -18.879983 0.000873 -0.109759 0.909546 -0.000002 0.000000 0.000001 10.533189 25.257730 -23.141750 1.287576 -0.070689 -35.769622 0.067793 -0.965812 8.030151 -0.000000 0.000001 0.000001 4.288463 -15.389664 31.881148 -31.278107 -20.379261 17.294809 -0.000002 34.236251 -0.000007 -25.587367 -9.950307 -16.379997 -16.093433 -9.607644 -6.511312 18.438849 -3.034175 -1.755844 -2.265424 2.736718 -1.353449 -0.000000 -0.000001 0.000002 2.044739 16.484837 -6.393793 0.357021 -2.203436 18.404428 0.000033 0.023217 -0.190502 0.000004 0.000003 -0.000002 0.373147 -6.891930 2.799656 0.263830 -1.900807 15.802708 18.479924 -0.068623 -0.336331 -0.000002 0.000001 -0.000001 1.536937 -9.530259 9.279720 0.590344 -2.808468 23.736992 22.328387 -0.117489 -0.427102 -0.000002 -0.000000 0.000001 7.429849 -22.299021 18.551690 0.203890 -1.674734 13.881478 0.003990 0.235766 -1.934913 -0.000000 -0.000000 -0.000000 -14.603325 4.024893 -9.987154 5.767708 -2.036685 -0.221736 13.063473 -0.392300 0.185390 0.261281 -0.000001 -0.000004 -0.000000 0.000001 -0.000001 -22.810569 -10.940553 -13.528293 9.876238 9.017912 0.593977 9.959398 11.183662 13.857185 -0.400655 -0.000002 -0.000006 0.000000 0.000000 0.000001 
5.342246 217.682816 -0.059278 7.382815 -9.139737 5.541119 10.285753 -7.446411 5.058283 1.642657 -1.239231 0.488990 1.624793 -1.265801 0.480434 -1.962372 -6.933547 12.315275 33.999138 5.653916 -17.309048 0.000000 0.000001 0.000001 -0.014879 1.282692 4.845122 -22.607446 -33.549551 19.664506 -0.000000 -2.348319 -0.000000 -35.331930 -1.275988 23.616318 -25.025577 15.889438 -8.064041 10.130969 3.659425 1.893126 -2.752817 -17.100101 0.268807 -0.000002 -0.000001 -0.000001 3.523940 -20.546718 9.027015 0.055157 0.871567 -7.241860 0.000034 -0.022996 0.190521 -0.000000 -0.000000 0.000001 -0.401906 -5.239491 -4.522430 0.156770 1.463862 -12.225368 0.000306 -0.065005 0.538608 0.000000 0.000002 0.000002 0.250926 1.849651 -16.563871 0.371858 2.236271 -18.879990 0.000875 -0.109760 0.909543 -0.000003 -0.000000 -0.000002 10.533197 25.257737 -23.141743 1.287576 -0.070698 -35.769622 0.067790 -0.965818 8.030156 0.000002 -0.000001 0.000000 3.483618 -20.153954 23.612435 -31.272690 -20.925985 24.565472 0.000005 31.317954 0.000007 -21.300286 -5.509854 -17.326255 -16.093433 -9.607645 -6.511311 18.438842 -3.034202 -1.755837 -2.265436 2.736715 -1.353456 -0.000001 0.000000 -0.000001 2.044733 16.484834 -6.393802 0.357013 -2.203443 18.404435 0.000030 0.023213 -0.190499 -0.000001 -0.000001 -0.000000 0.373124 -6.891931 2.799657 0.263840 -1.900808 15.802712 18.479934 -0.068614 -0.336336 -0.000001 -0.000000 0.000001 1.536934 -9.530245 9.279727 0.590345 -2.808479 23.736975 22.328372 -0.117492 -0.427105 0.000001 0.000001 -0.000001 7.429825 -22.299022 18.551680 0.203886 -1.674731 13.881474 0.003987 0.235762 -1.934917 -0.000000 -0.000000 -0.000000 -15.161408 4.462926 -8.883169 5.535267 -1.177941 -0.276147 14.472110 -0.289859 1.798911 0.579337 -0.000001 0.000002 -0.000001 -0.000000 -0.000000 -23.387066 -10.983345 -12.534874 8.814065 8.995865 0.626906 11.185710 12.415507 15.908409 -0.551495 0.000000 -0.000002 -0.000000 0.000000 -0.000000 
4.996772 217.771500 -0.519667 7.552999 -11.837626 5.042479 11.940044 -8.509581 2.713773 1.911214 -1.381386 0.082574 1.889421 -1.411454 0.072673 -3.126838 -5.216497 10.833172 34.146820 9.131854 -17.101426 0.000001 0.000000 -0.000000 0.103192 0.373462 4.774773 -24.578320 -37.193764 14.670965 -0.000000 -0.023994 -0.000002 -37.174613 -2.168391 26.239683 -25.025572 15.889452 -8.064030 10.130975 3.659401 1.893122 -2.752813 -17.100115 0.268798 -0.000000 0.000003 0.000002 3.523920 -20.546729 9.027017 0.055150 0.871555 -7.241851 0.000035 -0.022997 0.190521 0.000000 0.000000 -0.000005 -0.401894 -5.239477 -4.522427 0.156775 1.463851 -12.225370 0.000305 -0.065001 0.538612 0.000000 -0.000001 0.000001 0.250917 1.849640 -16.563880 0.371861 2.236296 -18.879992 0.000874 -0.109756 0.909544 0.000001 -0.000000 0.000002 10.533195 25.257746 -23.141748 1.287580 -0.070697 -35.769619 0.067779 -0.965815 8.030154 0.000002 -0.000001 -0.000000 0.719841 -25.215223 10.196914 -31.545317 -21.729388 35.147009 -0.000002 22.710639 -0.000004 -14.902692 2.695485 -17.404697 -16.093428 -9.607654 -6.511309 18.438866 -3.034181 -1.755849 -2.265429 2.736732 -1.353440 0.000000 0.000000 -0.000002 2.044738 16.484825 -6.393800 0.357008 -2.203435 18.404433 0.000032 0.023218 -0.190500 -0.000002 -0.000001 0.000001 0.373147 -6.891917 2.799660 0.263837 -1.900837 15.802713 18.479925 -0.068622 -0.336347 0.000000 0.000001 -0.000002 1.536956 -9.530252 9.279726 0.590341 -2.808461 23.736967 22.328377 -0.117492 -0.427093 0.000001 0.000003 -0.000001 7.429837 -22.299015 18.551687 0.203889 -1.674718 13.881460 0.003991 0.235760 -1.934905 -0.000000 -0.000001 0.000001 -15.214926 5.037220 -7.488847 5.248223 0.034441 -0.371138 15.667848 -0.144011 3.249575 0.931886 -0.000005 0.000002 0.000001 0.000001 -0.000000 -23.453312 -11.037516 -11.405470 7.400083 8.973362 0.654616 12.179637 13.722243 18.724064 -0.888852 -0.000004 0.000009 -0.000000 0.000000 0.000001 
4.649940 217.735245 -0.780183 7.614755 -15.595893 4.385743 12.970660 -9.360252 0.096812 2.100559 -1.471167 -0.343573 2.076831 -1.501617 -0.354895 -3.901961 -3.201742 9.024042 34.171272 12.995528 -17.104745 0.000000 -0.000000 -0.000000 0.227278 -0.515833 4.336052 -27.954124 -37.752283 7.763937 0.000001 -0.000033 0.000000 -32.454487 -4.851766 30.237749 -25.025562 15.889441 -8.064043 10.130972 3.659410 1.893134 -2.752797 -17.100106 0.268792 0.000004 -0.000001 0.000000 3.523924 -20.546729 9.027025 0.055151 0.871557 -7.241852 0.000034 -0.022996 0.190523 -0.000000 -0.000001 -0.000001 -0.401906 -5.239492 -4.522434 0.156793 1.463875 -12.225365 0.000305 -0.065003 0.538605 0.000003 0.000001 0.000000 0.250913 1.849642 -16.563882 0.371865 2.236303 -18.879985 0.000874 -0.109758 0.909546 0.000001 0.000000 -0.000001 10.533194 25.257710 -23.141757 1.287582 -0.070687 -35.769619 0.067791 -0.965825 8.030141 -0.000003 -0.000001 0.000001 -3.486441 -28.302829 -4.797988 -35.249199 -21.229874 43.540277 -0.000004 6.072317 0.000004 -8.670489 14.750639 -16.585521 -16.093433 -9.607641 -6.511294 18.438849 -3.034180 -1.755839 -2.265425 2.736724 -1.353443 -0.000001 0.000005 0.000002 2.044737 16.484848 -6.393789 0.357010 -2.203455 18.404431 0.000034 0.023218 -0.190497 -0.000001 0.000001 0.000001 0.373158 -6.891928 2.799660 0.263815 -1.900819 15.802713 18.479927 -0.068620 -0.336334 0.000000 0.000001 -0.000000 1.536937 -9.530258 9.279730 0.590342 -2.808459 23.736982 22.328384 -0.117477 -0.427101 0.000002 -0.000002 0.000003 7.429820 -22.299036 18.551685 0.203906 -1.674705 13.881474 0.003980 0.235757 -1.934918 0.000002 -0.000002 0.000001 -15.128237 5.829875 -5.538146 5.508777 1.951652 -0.451721 16.299483 0.022859 4.324347 1.362267 -0.000007 0.000001 -0.000000 0.000001 -0.000000 -23.390850 -10.754670 -9.813683 5.877907 8.926353 0.688807 13.533762 15.480071 21.963438 -1.268495 0.000001 0.000002 -0.000000 0.000000 0.000001 
